<?xml version="1.0" encoding="UTF-8"?>
<svg version="1.1" viewBox="0 0 940 2048" width="249" height="542" xmlns="http://www.w3.org/2000/svg">
<path transform="translate(737,176)" d="m0 0h32l24 2 20 4 12 5 17 9 12 8 14 12 13 12 9 10 10 16 9 25 4 14 4 38v12l-1 12 1 15v17l-1 14-1 258 1 7v14l-1 9v21l1 6v18l-1 9v18l1 5v13l-1 4v94l-2 18-5 14-10 19-12 13-9 9-8 6-15 8-11 4-12 3-10 1h-20l-12-1-5-3-7-1-12-6-13-10-11-14-6-7-10-17-4-16-1-11-1-6-1-2v-92l1-28 1-4v-18l-1-6v-114l1-4v-28l-1-14v-15l1-7-2-5v-76l2-4-1-7-4-6h-5l-3 4v430l1 156 1 33-1 27v41l1 21v76l-1 29v192l1 28v16l-1 22v33l1 17v87l-1 16-2 57-2 12-8 21-6 12-10 13-9 11-8 7-12 9-13 6-21 6-12 1h-32l-12-2-17-5-10-5-16-12-8-8-11-14-11-17-5-9-5-15-2-15v-597l2-24v-8l-5-8-5-2-6 1-4 2-1 5 1 117 1 192v142l1 14v11l-1 3v27l1 5v13l-1 4v26l1 9v14l-1 9-1 20v59l1 22-1 17v72l1 4v18l-3 28-4 19-5 13-7 11-9 12-11 10-9 7-11 10-3 2-7 1-8 5-21 5-18 3h-17l-24-7-9-4-20-9-13-12-14-14-8-13-5-12-6-12-1-4-1-17-1-135v-463l1-117v-525l-1-4-6-1-4 1-1 168v264l-2 18-5 21-5 10-8 12-8 11-8 6-13 8-8 4-20 7-9 2-2 1h-19l-25-7-12-5-13-9-10-9-10-10-10-14-9-17-1-4-1-18v-272l1-277 3-20 8-21 11-22 10-16 9-13 8-12 9-10 6-7 14-10 11-7 11-8 15-10 26-15 20-11 11-7 16-8 23-10 50-22 22-8 12-6 16-5 17-7h2l2-4 11-1 30-15 15-6 21-9 9-2 13-6 10-2 13-5 8-1 10-5 16-7 14-6 15-5 13-6 12-4 10-4 11-3 14-5 13-4 41-14 32-9 13-4 17-3 12-3z" fill="#0AA0EA"/>
<path transform="translate(295,17)" d="m0 0h24l19 3 23 7 10 5 25 17 10 9 5 5 6 7 12 18 11 23 5 15 3 16v27l-4 21-4 15-6 12-6 13-4 8-10 13-10 11-5 6-8 7-14 10-19 9-15 5-14 5-2 1-19 1h-23l-10-3-10-2-6-2-17-6-16-8-10-7-14-12-5-4-6-8-9-9-12-22-5-11-6-15-4-20v-28l3-12 1-11 6-15 9-17 9-14 12-14 7-8 13-9 15-10 11-7 19-7 15-5z" fill="#0AA0EA"/>
</svg>
