<svg xmlns="http://www.w3.org/2000/svg" width="360" height="200" fill="none"><g clip-path="url(#a)"><mask id="b" width="360" height="200" x="0" y="0" fill="none" maskUnits="userSpaceOnUse" style="mask-type:luminance"><path fill="#FFF" d="M360 0H0v200h360V0Z"/></mask><g mask="url(#b)"><path fill="#FCF5EB" stroke="#316474" stroke-linecap="round" stroke-linejoin="round" d="M308.6 83.603c1-1.5 4-6.3.4-12s-10.3-8.1-15.9-6c-4.6 1.7-6.2 6.7-6.1 10.5l21.4 7.9.2-.2v-.2Zm-15.9-7.1s0-4.5 3-5.6c3.2-1.3 6.8.5 8.6 3.3 1.9 2.9-.3 5.5-1 6.9l-10.6-4.6Zm-32.1 29.6v28.3c0 9.5-3.8 18.1-10 24.4l8.3 3.7c8.5 3.4 17.1 6.6 25.8 9.4 6.7 2 17.5 4.8 22.4-1.9 4.2-5.9 6.7-12.7 7.4-19.9l2.5-20.8-56.4-23.2Z"/><path fill="#FCF5EB" stroke="#316474" stroke-linecap="round" stroke-linejoin="round" d="M321.5 100.603s.4-8.4-8-14.8-14.7-8.4-14.7-8.4c-3-1.2-10.8-3.9-16.1-4-5.3-.2-10.5 2-12.3 4.5-3.4 4.8-6.6 9.6-9.8 14.5v27.5c4 2.2 8.2 4 12.6 5.5 5.8 2 19.6 7.8 24 9.5 4.3 1.4 11.6 4.5 15.5 2 3.9-2.6 5-10 5.8-13.8.9-3.9 3.8-15.7 3-22.5Z"/><path fill="#0AA0EA" stroke="#316474" stroke-linecap="round" stroke-linejoin="round" d="m267.1 130.601-.6-.5c-1.6-.7-2.3-2.6-1.5-4l2.7-5.5c.6-1.4 2.4-2 3.9-1.2l.6.4c1.5.8 2.3 2.6 1.5 4l-2.8 5.5c-.5 1.5-2.3 2-3.8 1.3Zm28 11.3-.6-.2c-1.6-.7-2.4-2.5-1.8-3.9l2.2-5.7c.6-1.4 2.4-2.1 3.9-1.4l.7.3c1.6.7 2.4 2.5 1.7 3.9l-2.2 5.7c-.6 1.4-2.3 2-3.7 1.4-.1 0-.1-.1-.2-.1Z"/><path fill="#FFF" d="M62.1 82.801c1.3 3.7 1.7 12.5-1.8 13.8-3.4 1.2-9.3-5.6-10.7-9.3-1.4-3.7.3-7.7 3.8-8.9 3.5-1.2 7.4.7 8.7 4.4Z"/><path fill="#0AA0EA" stroke="#316474" stroke-linecap="round" stroke-linejoin="round" d="M321.9 45.803s7.5-3.8 10.5.2c3 3.9 1.9 9.3-7.2 13.9-6.2 3.2-7.6 3.6-7.6 3.6-2.2-2.1-4.2-4.4-6-6.9-2.6-3.5-6.2-11.9 0-14.7 6.3-2.8 10.3 4 10.3 3.9Z"/><path fill="#06CF9C" fill-opacity=".15" d="M225.5 8.602h-91c-19.2 0-34.8 15.6-34.8 34.8v91c0 19.2 15.6 34.8 34.8 34.8h91c19.2 0 34.8-15.6 34.8-34.8v-91c0-19.2-15.6-34.8-34.8-34.8Z"/><path fill="#0AA0EA" stroke="#316474" stroke-linecap="round" stroke-linejoin="round" d="M181.6 75.3c-8.3 0-15-6.7-15-15s6.7-15 15-15 15 6.7 15 15-6.7 15-15 15ZM212.9 88c-6.4 0-11.5-5.1-11.5-11.5S206.5 65 212.9 65s11.5 5.1 11.5 11.5S219.3 88 212.9 88Zm-62.6 0c-6.4 0-11.5-5.1-11.5-11.5S143.9 65 150.3 65s11.5 5.1 11.5 11.5S156.7 88 150.3 88Z"/><path stroke="#316474" stroke-linecap="round" stroke-linejoin="round" d="M80.7 10.4c-.1 3.1-.3 7.4-1.2 8.6-1.1 1.5-5.3 2.5-8.8 3.1-.6.1-.5 1 .1 1 3.3.2 7.5.5 8.7 1.5 1.2 1.1 2.1 5.4 2.7 8.7.1.6 1 .5 1-.1.2-3.5.4-7.9 1.6-9.1 1.1-1.2 5.8-2 9.2-2.6.6-.1.5-1-.1-1-3.4-.1-8.2-.3-9.4-1.3-1.3-1.1-2.2-5.4-2.8-8.9-.1-.5-1-.5-1 .1Zm-59.1 95.501c-.5 2.9-1.2 6.8-2.1 7.8-1.1 1.2-5.1 1.7-8.5 1.8-.6 0-.6.8 0 .9 3 .5 6.9 1.3 7.9 2.4 1 1.1 1.3 5.2 1.5 8.4 0 .6.9.6 1 .1.5-3.2 1.3-7.2 2.5-8.2 1.1-.9 5.6-1.2 8.8-1.4.6 0 .6-.8 0-.9-3.2-.5-7.5-1.3-8.5-2.3-1.1-1.1-1.4-5.3-1.6-8.5 0-.6-.8-.7-1-.1Zm317.8-6.8c-.9 2.7-2.1 6.2-3.1 7-1.3 1-5.1.8-8.2.5-.5-.1-.7.7-.2.9 2.8.9 6.3 2.2 7 3.4.7 1.2.5 5.1.2 8.1 0 .5.7.7.9.2 1-2.9 2.3-6.6 3.6-7.4 1.2-.7 5.4-.3 8.5 0 .5.1.7-.7.2-.9-2.9-.9-6.9-2.3-7.7-3.4-.9-1.2-.6-5.2-.3-8.2 0-.5-.7-.7-.9-.2Z"/><path fill="#FCF5EB" d="M100 64.202c-1.9-3.8-4.7-7.1-8.2-9.6-6.4-4.7-15.4-2.3-20 1.3-2.2 1.7-3.1 4.4-5.1 6.2-1.2 1.1-2.8 1.8-4.4 2.1h-.2c-1.9.3-3.8-.2-5.7 0-3.9.3-7.3 2.3-10.3 4.7-7.5 6.1-7.9 17.3-2.1 27.1 9.1 15.6 26.3 20.9 33.9 19.6 7.6-1.3 6.9-5.3 11.4-8.4 4.4-2.9 6.7-1.5 10.8-4.4"/><path stroke="#316474" stroke-linecap="round" stroke-linejoin="round" d="M100 64.202c-1.9-3.8-4.7-7.1-8.2-9.6-6.4-4.7-15.4-2.3-20 1.3-2.2 1.7-3.1 4.4-5.1 6.2-1.2 1.1-2.8 1.8-4.4 2.1h-.2c-1.9.3-3.8-.2-5.7 0-3.9.3-7.3 2.3-10.3 4.7-7.5 6.1-7.9 17.3-2.1 27.1 9.1 15.6 26.3 20.9 33.9 19.6 7.6-1.3 6.9-5.3 11.4-8.4 4.4-2.9 6.7-1.5 10.8-4.4"/><path fill="#0AA0EA" stroke="#316474" stroke-linecap="round" stroke-linejoin="round" d="M63.1 63.902c.6 0 7.7-7.1 7-14.3-.5-5.6-5.8-13.2-8.2-12.6-1 .2-6.7 8.3-6.4 14.1.3 7.5 7.2 12.8 7.6 12.8Z"/><path fill="#FFF" d="M61.5 82.701c1.8 3.7 3 12.8-.4 14.4-3.4 1.6-10.2-4.8-11.9-8.5-1.7-3.7-.4-8 3-9.6 3.3-1.6 7.5 0 9.3 3.7Z"/><path fill="#0AA0EA" stroke="#316474" stroke-linecap="round" stroke-linejoin="round" d="M169.7 106.302c-4.4-7.1-12.2-11.4-20.6-11.4h-.3c-8.4 0-16.1 4.3-20.6 11.4-1.2 1.9-1.3 4.3-.2 6.2 1.1 2 3.1 3.2 5.4 3.2h31.2c2.2 0 4.3-1.2 5.4-3.2 1.1-2 .9-4.3-.3-6.2Zm63.9 0c-4.4-7.1-12.2-11.4-20.6-11.4h-.3c-8.4 0-16.1 4.3-20.6 11.4-1.2 1.9-1.3 4.3-.2 6.2 1.1 1.9 3.1 3.2 5.4 3.2h31.2c2.2 0 4.3-1.2 5.4-3.2 1.1-2 .9-4.3-.3-6.2Z"/><path fill="#FFF" d="M291.2 22.6C288 15.2 280.6 10 272 10s-15.2 4.2-18.6 11.4l.6 2.1c4.1 5.8 6.3 12.8 6.3 19.9v2.7l.7 2.5c9.8 6.1 22.7 3 28.8-6.8 3.5-5.8 4.1-12.9 1.4-19.2Z"/><path fill="#FFF" d="M275.2 36.702c-4.2-1.3-10.1-5.5-10.1-13.1 0 7.6 6 11.8 10.1 13.1Zm0 0c.6 4.5 0 10.2.5 14.7l-.5-14.7Zm0 0c3.2 1 8-1.7 10.4-3.7 2.7-2.3 5.9-6.7 5.5-10.4m-11.7-11.2c-.1 5.2-8 16.9-11.5 20.3l11.5-20.3Zm-7.4-.8c.3 5.5-1.7 9.2-6.9 13.1l6.9-13.1Zm-1.8 7.9c-2.3-1.7-13.4-1-15.3.5 1.8-1.4 13-2.1 15.3-.5Zm5.3 29.1c-6.1-.9-11.6-4.2-15.3-9.2l15.3 9.2Z"/><path stroke="#316474" stroke-linecap="round" stroke-linejoin="round" d="M275.2 36.702c-4.2-1.3-10.1-5.5-10.1-13.1 0 7.6 6 11.8 10.1 13.1Zm0 0c.6 4.5 0 10.2.5 14.7m-.5-14.7c3.2 1 8-1.7 10.4-3.7 2.7-2.3 5.9-6.7 5.5-10.4m-11.7-11.2c-.1 5.2-8 16.9-11.5 20.3m4.1-21.1c.3 5.5-1.7 9.2-6.9 13.1m10.4 23.9c-6.1-.9-11.6-4.2-15.3-9.2m10-19.9c-2.3-1.7-13.4-1-15.3.5 1.8-1.4 13-2.1 15.3-.5ZM253.9 22.602c1.3.7 1.9 1.2 3.3 1.4 4.5.6 6.7-.1 7.9-.4"/></g><path stroke="#316474" stroke-linecap="round" stroke-linejoin="round" d="M225.8 8.602h-91c-19.2 0-34.8 15.6-34.8 34.8v91c0 19.2 15.6 34.8 34.8 34.8h91c19.2 0 34.8-15.6 34.8-34.8v-91c0-19.2-15.6-34.8-34.8-34.8Z"/><path fill="#FFF" stroke="#316474" stroke-linecap="round" stroke-linejoin="round" d="M221.6 137.299c1.5-1.2 4.6-3.4 8.3 1.5 3.7 4.9 4.9 7.5 5.4 9s1.2 4-2.4 6.5l-9.5 7c-1.7-6.8-5.4-12.9-10.6-17.5l8.8-6.5Z"/><path fill="#FFF" d="M194.1 162.498c4.2.9 6.9 7.5 6.9 7.5 3 .1-.9 6-.9 6l-1.5 2.9-2.6.5c-1.8.3-5.8.5-9.1.5l-3-.5s-.9-.5-1.1-2.5l-.6-2.4c1.5-4.4 3.3-8.6 5.4-12.7-.1.1.1-.1 0 0 2 1.4 6.5.7 6.5.7Z"/><path stroke="#316474" stroke-linecap="round" stroke-linejoin="round" d="M187.6 161.699c-2.1 4.1-3.9 8.3-5.4 12.7l.6 2.4c.2 1.9 1.1 2.5 1.1 2.5l3 .5c3.9 0 7.8-.3 11.7-1l1.5-2.9s3.9-5.9.9-6c0 0-2.7-6.7-6.9-7.5 0 .1-4.5.8-6.5-.7Zm0 0c-.1.2.1 0 0 0Z"/><path fill="#0AA0EA" stroke="#316474" stroke-linecap="round" stroke-linejoin="round" d="M212.8 143.898c3.1 2.4 8.9 9.2 10.6 17.5l-3.3 2.2c-8.8 6.2-20.8 15-21.4 15.4l-.8-.1s-.5-6.6-3.6-6.7c0 0 .1-5-4.1-5.8 0 0-.3-3.1-2.5-4.5 4.2-4 12.3-9.2 20.1-14.6l5-3.4Zm-30.1 29.9c4.7 2.3 4.2 6.1 4.2 6.1s-5.1-.2-5.7-.8c-.3-.4.2-2.4 1.1-4.9l.4-.4Z"/><path fill="#FFF" d="M219.6 138.898c5.1 4.5 8.6 10.5 10 17.2l-10-17.2Z"/><path stroke="#316474" stroke-linecap="round" stroke-linejoin="round" d="M219.6 138.898c5.1 4.5 8.6 10.5 10 17.2"/><path fill="#0AA0EA" stroke="#316474" stroke-linecap="round" stroke-linejoin="round" d="M214.6 101.501c-6.7-10.7-18.5-17.2-31.1-17.2h-.5c-12.6 0-24.4 6.5-31.1 17.2-1.8 2.8-1.9 6.4-.3 9.4 1.6 2.9 4.7 4.8 8.1 4.8h47c3.4 0 6.5-1.8 8.1-4.8 1.7-2.9 1.6-6.6-.2-9.4Z"/><mask id="c" width="85" height="70" x="29" y="118" fill="none" maskUnits="userSpaceOnUse" style="mask-type:luminance"><path fill="#FFF" d="M114 118H29v69.1h85V118Z"/></mask><g mask="url(#c)"><path fill="#FFF" d="M48.5 186.602c2.6-.4 23.7-7.2 31-10.2 0 0 28.8-5.3 31.1-6.1 3.5-1.3 3.2-2.3 2.7-5.1s-5.8-35.4-6.9-40.3c-1.1-4.6-3.7-3.9-6.2-3.4l.1-.1c-1.2-3.3-4.2-2.9-5.9-2.3l-22.4 9.6c-1.3 0-2.7-.3-4.8.4-2.1.8-1.8 1.5-1.8 1.5-1.8-.5-25.1 4.4-29.8 5.4-4.8 1-6.4 3.3-5.9 5.5.7 3.5 8.7 32.8 10.5 38.9 1.4 4.6 3.2 5.9 5.3 6"/><path stroke="#316474" stroke-linecap="round" stroke-linejoin="round" d="m71.9 128.6 22.5-9.7c1.7-.7 4.7-1 5.9 2.3M72 128.6s25.9-6.8 27.7-7.1c2.7-.5 5.5-1.6 6.7 3.3 1.1 4.9 6.4 37.5 6.9 40.3.5 2.8.8 3.9-2.7 5.1-2.4.9-23.5 4.3-30.7 6m-14.6-45.7c-1.8-.5-25.1 4.4-29.8 5.4-4.8 1-6.4 3.3-5.9 5.5.7 3.5 8.7 32.8 10.5 38.9 1.4 4.6 3.2 5.9 5.3 6"/><path stroke="#316474" stroke-linecap="round" stroke-linejoin="round" d="M48.5 186.602c-3 .5-3.8-1.4-5-6.2-1.2-4.8-10.3-36.4-10.7-38.5-.5-2.1-.2-3.5 4.3-4.6 3.4-.9 28.8-6.5 28.8-6.5s-.8-1.1 1.3-1.9c2.1-.8 3.5-.4 4.8-.4"/><path stroke="#316474" stroke-linecap="round" stroke-linejoin="round" d="M79.5 176.301c-7.3 3-28.4 9.8-31 10.2m21.7-49.2 8.4 34.3"/><path fill="#0AA0EA" stroke="#316474" stroke-linecap="round" stroke-linejoin="round" d="M56.3 174.202c-1.2-.2-2.3-.7-3.4-1.3-1.1-.6-1.9-1.6-2.6-2.6-.7-1-1.2-2.2-1.4-3.4-.2-1.2-.3-2.5 0-3.7 1-5.1 6-8.5 11.1-7.5 1.2.2 2.4.6 3.4 1.3 1 .7 1.9 1.5 2.6 2.6.7 1 1.2 2.2 1.5 3.4.3 1.2.3 2.5 0 3.8-.3 1.2-.8 2.4-1.4 3.5-2.1 3.2-6 4.8-9.8 3.9Z"/><path stroke="#316474" stroke-linecap="round" stroke-linejoin="round" d="M52.9 164.801c-.1-.3.3-.6.6-.7 2.8-.9 5.6-2.1 8.5-2.9-.4 1.1-9.1 3.6-9.1 3.6Zm1.4 4.5c0-.3.3-.6.6-.6 2.9-.9 5.7-2.1 8.6-2.9-.5 1.2-9.1 3.7-9.2 3.5Zm-6.8-20.8c-.2-.3.2-.6.5-.6 2.9-1 6.9-1.4 9.8-2.2-3.3 1.4-6.8 2.3-10.3 2.8Zm37.1-7.4c0-.3.4-.5.7-.5 3-.5 5.9-1 8.9-1.3-.8 1.1-9.6 1.8-9.6 1.8Z"/><path stroke="#316474" stroke-linecap="round" stroke-linejoin="round" d="M88.6 136.202c-.1-.3-.3-.6-.6-.6-.1 0 1.6 8.7 2.7 9.3-.5-3-1.4-5.8-2.1-8.7Zm1.6 26.5c-.3-.2-.1-.8.1-1.1 1.8-3.4 3.5-6.9 5.4-10.2-1.3 4-3.1 7.8-5.5 11.3Z"/><path stroke="#316474" stroke-linecap="round" stroke-linejoin="round" d="M87.2 154.399c.2-.4.8-.2 1.1 0 3.4 1.7 7 3.4 10.3 5.4-1.6.8-11.5-5.3-11.4-5.4Z"/></g><path stroke="#316474" stroke-linecap="round" stroke-linejoin="round" d="M261 48.6c9.8 6.1 22.7 3.2 28.8-6.6 6.1-9.8 3.2-22.7-6.6-28.8-3.3-2.1-7.2-3.2-11.2-3.2-8.6 0-15.2 4.2-18.6 11.4"/><path fill="#FFF" stroke="#316474" stroke-linecap="round" stroke-linejoin="round" d="M275.2 36.698c5.2-5.5 10.7-17 10.7-20.8 0 3.8-5.4 15.3-10.7 20.8ZM285.9 32.8c.7 1.8.6 11.2.5 13.1.2-2 .2-11.3-.5-13.1Z"/></g><defs><clipPath id="a"><path fill="#fff" d="M0 0h360v200H0z"/></clipPath></defs></svg>