<svg xmlns="http://www.w3.org/2000/svg" height="24" width="24" preserveAspectRatio="xMidYMid meet" fill="none" xmlns:v="https://vecta.io/nano"><path d="M21.489 4.478l-1.544-1.867c-.3-.378-.756-.611-1.278-.611H5.333a1.65 1.65 0 0 0-1.289.611L2.511 4.478C2.189 4.856 2 5.356 2 5.889v13.889A2.23 2.23 0 0 0 4.222 22h15.556A2.23 2.23 0 0 0 22 19.778V5.889c0-.533-.189-1.033-.511-1.411zM5.6 4.222h12.8l.9 1.078H4.711L5.6 4.222zM4.222 19.778V7.556h15.556v12.222H4.222zm9.389-10h-3.222v3.333H7.556L12 17.556l4.444-4.444h-2.833V9.778z" fill="#0aa0ea"/></svg>