<svg xmlns="http://www.w3.org/2000/svg" height="24" width="24" preserveAspectRatio="xMidYMid meet" fill="#0aa0ea" xmlns:v="https://vecta.io/nano"><path d="M19.992 17l-.031-1.596-.016-.151a4.48 4.48 0 0 0-.222-.911l-.14-.342-.027-.058c-.094-.197-.2-.378-.315-.546l.262-.006h.053a7.47 7.47 0 0 1 1.846.232l.18.048.01.003.017.005c.46.132.979.346 1.416.683.454.35.868.874.949 1.596.038.337.026.059.017.468-.016.729-.614 2.576-1.33 2.576h-2.974c.177-.375.282-1.07.295-1.514l.01-.486zM2.419 13.669l.18-.048a7.49 7.49 0 0 1 1.845-.232h.053l.262.006a4.17 4.17 0 0 0-.315.546L4.417 14l-.14.342a4.48 4.48 0 0 0-.222.911l-.016.151c-.049.59-.042.859-.031 1.596l.01.486c.013.444.118 1.139.295 1.514H1.339c-.716 0-1.314-.846-1.33-1.576l.017-1.469c.082-.722.495-1.246.949-1.596.437-.337.955-.551 1.416-.683l.017-.005.01-.003zM15.083 9.33l-.186.289a3.57 3.57 0 0 1-1.081.994c-.532.316-1.153.497-1.817.497s-1.285-.181-1.817-.497a3.57 3.57 0 0 1-1.081-.994l-.186-.289a3.53 3.53 0 0 1-.472-1.77c0-.19.015-.377.044-.56a3.56 3.56 0 0 1 7.024 0c.029.182.044.369.044.56a3.53 3.53 0 0 1-.472 1.77zm-8.063.694a2.69 2.69 0 0 0 .091-.694c0-.676-.252-1.292-.667-1.761-.489-.552-1.204-.899-2-.899a2.66 2.66 0 0 0-2.667 2.66 2.67 2.67 0 0 0 1.133 2.184A2.65 2.65 0 0 0 4.444 12c.127 0 .253-.009.375-.026a2.65 2.65 0 0 0 1.246-.525 2.67 2.67 0 0 0 .954-1.425zm10.914 1.425a2.65 2.65 0 0 0 1.246.525c.123.017.248.026.375.026a2.65 2.65 0 0 0 1.534-.486 2.67 2.67 0 0 0 1.133-2.184 2.66 2.66 0 0 0-2.667-2.66c-.796 0-1.511.347-2 .899-.415.469-.667 1.085-.667 1.761a2.67 2.67 0 0 0 .091.694c.154.574.495 1.072.954 1.425zM6.371 18.673a1.81 1.81 0 0 1-.362-.476c-.129-.241-.207-.51-.214-.764l.022-1.942a2.7 2.7 0 0 1 .134-.55 2.36 2.36 0 0 1 .278-.544 2.84 2.84 0 0 1 .787-.759l.102-.066c.462-.284.979-.461 1.411-.587a12.2 12.2 0 0 1 1.329-.304 12.69 12.69 0 0 1 4.286 0c.507.087.954.196 1.329.304.432.125.949.302 1.411.587l.102.066a2.84 2.84 0 0 1 .787.759 2.42 2.42 0 0 1 .277.544 2.7 2.7 0 0 1 .134.55c.06.442.037 1.437.022 1.942-.008.254-.085.522-.214.764-.095.179-.219.343-.362.476-.215.199-.475.327-.753.327H7.124c-.278 0-.538-.128-.753-.327z"/></svg>