<svg xmlns="http://www.w3.org/2000/svg" height="212" width="212" preserveAspectRatio="xMidYMid meet" xmlns:v="https://vecta.io/nano"><path fill="#6a7175" d="M106.251.5C164.653.5 212 47.846 212 106.25S164.653 212 106.25 212 .5 164.654.5 106.25 47.846.5 106.251.5z"/><path d="M173.561 171.615l-2.065-2.955-2.608-3.299-3.184-3.527c-1.741-1.802-3.71-3.646-5.924-5.47-2.952-2.431-6.339-4.824-10.204-7.026a75.2 75.2 0 0 0-5.98-3.055c-.062-.028-.118-.059-.18-.087-9.792-4.44-22.106-7.529-37.416-7.529s-27.624 3.089-37.416 7.529c-.338.153-.653.318-.985.474a75.37 75.37 0 0 0-4.128 2.101 74.2 74.2 0 0 0-2.101 1.197c-3.421 2.027-6.475 4.191-9.15 6.395-2.213 1.823-4.182 3.668-5.924 5.47-1.161 1.201-2.22 2.384-3.184 3.527a67.14 67.14 0 0 0-2.609 3.299 63.29 63.29 0 0 0-2.065 2.955 56.33 56.33 0 0 0-1.447 2.324l-.104.174a47.92 47.92 0 0 0-1.07 1.926c-.559 1.068-.818 1.678-.818 1.678v.398c18.285 17.927 43.322 28.985 70.945 28.985 27.678 0 52.761-11.103 71.055-29.095v-.289s-.619-1.45-1.992-3.778c-.413-.699-.89-1.474-1.446-2.322zM106.002 125.5c2.645 0 5.212-.253 7.68-.737l3.624-.896c1.772-.532 3.482-1.188 5.12-1.958 2.184-1.027 4.242-2.258 6.15-3.67 2.863-2.119 5.39-4.646 7.509-7.509a36.24 36.24 0 0 0 1.98-2.971 36.56 36.56 0 0 0 2.422-4.84 37.05 37.05 0 0 0 1.226-3.458c.177-.591.341-1.188.49-1.792.299-1.208.542-2.443.725-3.701.275-1.887.417-3.827.417-5.811s-.142-3.925-.417-5.811c-.184-1.258-.426-2.493-.725-3.701a39.08 39.08 0 0 0-.49-1.793 37.05 37.05 0 0 0-1.226-3.458 36.68 36.68 0 0 0-2.422-4.84 36.24 36.24 0 0 0-1.98-2.971c-2.119-2.863-4.646-5.39-7.509-7.509-1.909-1.412-3.966-2.643-6.15-3.67-1.638-.77-3.348-1.426-5.12-1.958a37.67 37.67 0 0 0-3.624-.896c-2.468-.484-5.035-.737-7.68-.737-21.162 0-37.345 16.183-37.345 37.345S84.84 125.5 106.002 125.5z" fill="#cfd4d6"/></svg>