<svg xmlns="http://www.w3.org/2000/svg" viewBox="0 0 640 512" fill="#bcbcbc" xmlns:v="https://vecta.io/nano"><path d="M38.8 5.1C28.4-3.1 13.3-1.2 5.1 9.2s-6.3 25.5 4.1 33.7l592 464c10.4 8.2 25.5 6.3 33.7-4.1s6.3-25.5-4.1-33.7l-105.2-82.4c39.6-40.6 66.4-86.1 79.9-118.4a31.8 31.8 0 0 0 0-24.6c-14.9-35.7-46.2-87.7-93-131.1C465.5 68.8 400.8 32 320 32c-68.2 0-125 26.3-169.3 60.8L38.8 5.1zm151 118.3C226 97.7 269.5 80 320 80c65.2 0 118.8 29.6 159.9 67.7C518.4 183.5 545 226 558.6 256c-12.6 28-36.6 66.8-70.9 100.9l-53.8-42.2c9.1-17.6 14.2-37.5 14.2-58.7 0-70.7-57.3-128-128-128a127.86 127.86 0 0 0-84.2 31.5l-46.1-36.1zm205.1 160.8l-81.5-63.9c4.2-8.5 6.6-18.2 6.6-28.3a64.94 64.94 0 0 0-2-16h2c44.2 0 80 35.8 80 80a80.14 80.14 0 0 1-5.1 28.2zm9.4 130.3C378.8 425.4 350.7 432 320 432c-65.2 0-118.8-29.6-159.9-67.7C121.6 328.5 95 286 81.4 256c8.3-18.4 21.5-41.5 39.4-64.8l-37.7-29.7c-22.8 29.7-39.1 59.3-48.6 82.2a31.8 31.8 0 0 0 0 24.6c14.9 35.7 46.2 87.7 93 131.1 47 43.8 111.7 80.6 192.5 80.6 47.8 0 89.9-12.9 126.2-32.5l-41.9-33zM192 256c0 70.7 57.3 128 128 128 13.3 0 26.1-2 38.2-5.8L302 334c-23.5-5.4-43.1-21.2-53.7-42.3l-56.1-44.2a118.58 118.58 0 0 0-.3 8.5z"/></svg>