<svg xmlns="http://www.w3.org/2000/svg" viewBox="0 0 512 512" xmlns:v="https://vecta.io/nano"><path fill="#e7e8ea" d="M502.6 278.6c12.5-12.5 12.5-32.8 0-45.3l-128-128c-12.5-12.5-32.8-12.5-45.3 0s-12.5 32.8 0 45.3l73.4 73.4H192a31.97 31.97 0 1 0 0 64h210.7l-73.4 73.4c-12.5 12.5-12.5 32.8 0 45.3s32.8 12.5 45.3 0l128-128zM160 96a31.97 31.97 0 0 0 32-32 31.97 31.97 0 0 0-32-32H96C43 32 0 75 0 128v256c0 53 43 96 96 96h64a31.97 31.97 0 1 0 0-64H96a31.97 31.97 0 0 1-32-32V128a31.97 31.97 0 0 1 32-32h64z"/></svg>