<svg xmlns="http://www.w3.org/2000/svg" height="26" width="19" preserveAspectRatio="xMidYMid meet" xmlns:v="https://vecta.io/nano"><path fill="#1c3a4d" d="M9.217 24.401a2.1 2.1 0 0 1-2.1-2.1v-2.366c-2.646-.848-4.652-3.146-5.061-5.958l-.052-.357-.003-.081c-.021-.559.182-1.088.571-1.492s.939-.637 1.507-.637h.3c.254 0 .498.044.724.125v-6.27A4.27 4.27 0 0 1 9.367 1a4.27 4.27 0 0 1 4.265 4.265v6.271c.226-.081.469-.125.723-.125h.3c.564 0 1.112.233 1.501.64a2.08 2.08 0 0 1 .571 1.526c0 .005.001.124-.08.6-.47 2.703-2.459 4.917-5.029 5.748v2.378c0 1.158-.942 2.1-2.1 2.1h-.301v-.002z"/><path fill="#0aa0ea" d="M9.367 15.668c1.527 0 2.765-1.238 2.765-2.765V5.265c0-1.527-1.238-2.765-2.765-2.765S6.603 3.738 6.603 5.265v7.638c0 1.527 1.237 2.765 2.764 2.765zm5.288-2.758h-.3a.64.64 0 0 0-.631.598l-.059.285c-.41 1.997-2.182 3.505-4.298 3.505-2.126 0-3.904-1.521-4.304-3.531l-.055-.277a.63.63 0 0 0-.629-.579h-.3c-.33 0-.591.258-.579.573l.04.278c.378 2.599 2.464 4.643 5.076 4.978v3.562a.6.6 0 0 0 .6.6h.3a.6.6 0 0 0 .6-.6V18.73c2.557-.33 4.613-2.286 5.051-4.809l.061-.411a.57.57 0 0 0-.573-.6z" fill-opacity=".6"/></svg>