<svg xmlns="http://www.w3.org/2000/svg" height="24" width="24" preserveAspectRatio="xMidYMid meet" fill="#aebac1" xmlns:v="https://vecta.io/nano"><path d="M9.533 12.991h1.976v1.976c0 .433.255.85.668.982.685.217 1.315-.287 1.315-.94v-2.018h1.976c.433 0 .851-.255.982-.668.217-.684-.288-1.314-.94-1.314h-2.018V9.033c0-.433-.255-.851-.668-.982-.684-.217-1.315.288-1.315.94v2.018H9.491c-.651 0-1.157.629-.94 1.314.13.413.549.668.982.668z"/><path fill-rule="evenodd" d="M.944 5.526L3 8.848v8.485C3 18.806 4.194 20 5.667 20h13.667C20.806 20 22 18.806 22 17.333V6.667C22 5.194 20.806 4 19.333 4H1.795a1 1 0 0 0-.85 1.526zM5 8.28v9.054c0 .368.298.667.667.667h13.667c.368 0 .667-.299.667-.667V6.667c0-.368-.299-.667-.667-.667H3.589L5 8.28z"/></svg>