<svg xmlns="http://www.w3.org/2000/svg" height="28" width="28" preserveAspectRatio="xMidYMid meet" fill="none" xmlns:v="https://vecta.io/nano"><path fill-rule="evenodd" d="M14 3.5C8.202 3.5 3.5 8.202 3.5 14S8.202 24.5 14 24.5a1.75 1.75 0 0 0 1.75-1.75c0-.455-.175-.863-.455-1.178-.268-.303-.443-.712-.443-1.155a1.75 1.75 0 0 1 1.75-1.75h2.065c3.22 0 5.833-2.613 5.833-5.833C24.5 7.677 19.798 3.5 14 3.5zM7.583 14a1.75 1.75 0 1 1 0-3.5 1.75 1.75 0 1 1 0 3.5zm1.75-6.417a1.75 1.75 0 0 0 3.5 0 1.75 1.75 0 0 0-3.5 0zm7.583 1.75a1.75 1.75 0 1 1 0-3.5 1.75 1.75 0 1 1 0 3.5zm1.75 2.917a1.75 1.75 0 1 0 3.5 0 1.75 1.75 0 1 0-3.5 0z" fill="#fff"/></svg>