<svg xmlns="http://www.w3.org/2000/svg" height="20" width="16" preserveAspectRatio="xMidYMid meet" xmlns:v="https://vecta.io/nano"><path fill="#8696a0" d="M13.822 4.668H7.14l-1.068-1.09a1.07 1.07 0 0 0-.663-.278H3.531a1.03 1.03 0 0 0-.656.285L1.276 5.296a1.15 1.15 0 0 0-.266.675v1.06l-.001 6.986a1.17 1.17 0 0 0 1.17 1.17h11.643a1.17 1.17 0 0 0 1.17-1.17v-8.18a1.17 1.17 0 0 0-1.17-1.169zm-5.982 8.63c-1.875 0-3.395-1.52-3.395-3.396s1.52-3.395 3.395-3.395 3.396 1.52 3.396 3.395-1.52 3.396-3.396 3.396zm0-5.787c-1.321 0-2.392 1.071-2.392 2.392s1.071 2.392 2.392 2.392 2.392-1.071 2.392-2.392S9.161 7.511 7.84 7.511z"/></svg>