<svg xmlns="http://www.w3.org/2000/svg" width="32" height="32" fill="#ff3b30" xmlns:v="https://vecta.io/nano"><path d="M16 4c1.9 0 3.4 1.4 3.4 3.1v8.6c0 1.7-1.5 3.1-3.4 3.1s-3.4-1.4-3.4-3.1V7.1C12.6 5.4 14.1 4 16 4m.3 19.4h-.9-.3c-3.7-.4-6.6-3.7-7.1-7.8v-.4c0-.5.3-.9.8-.9h.4c.5 0 .8.4.9.9l.1.4c.5 3.1 3 5.5 5.9 5.5s5.3-2.3 5.9-5.4l.1-.4c0-.5.4-.9.9-.9h.4c.4 0 .8.4.8.9 0 0 0 .1-.1.6-.6 4.1-3.7 7.3-7.4 7.6l-.4-.1z"/><path d="M17.1 27.3c0 .4-.4.7-.9.7h-.5c-.5 0-.9-.3-.9-.7V23c0-.4.4-.7.9-.7h.5c.5 0 .9.3.9.7v4.3z"/></svg>