<svg xmlns="http://www.w3.org/2000/svg" width="35" height="35" xmlns:v="https://vecta.io/nano"><path d="M17.5,0h0A17.51,17.51,0,0,1,35,17.5h0A17.51,17.51,0,0,1,17.5,35h0A17.51,17.51,0,0,1,0,17.5H0A17.51,17.51,0,0,1,17.5,0Z" fill="#00a884"/><path d="M25.64 18.55L11.2 24.93a.86.86 0 0 1-1.13-.44.83.83 0 0 1-.06-.44l.48-4.11a1.36 1.36 0 0 1 1.24-1.19l7.51-.6a.16.16 0 0 0 .14-.16.16.16 0 0 0-.14-.14l-7.51-.6a1.36 1.36 0 0 1-1.24-1.19L10 12a.84.84 0 0 1 .74-.94.87.87 0 0 1 .45.06l14.44 6.38a.61.61 0 0 1 .31.79.59.59 0 0 1-.3.26z" fill="#fff"/></svg>