<svg xmlns="http://www.w3.org/2000/svg" height="18" width="18" preserveAspectRatio="xMidYMid meet" xmlns:v="https://vecta.io/nano"><path fill="#8696a0" d="M17.394 5.035l-.57-.444c-.188-.147-.462-.113-.609.076l-6.39 8.198a.38.38 0 0 1-.577.039l-.427-.388a.38.38 0 0 0-.578.038l-.451.576a.5.5 0 0 0 .043.645l1.575 1.51a.38.38 0 0 0 .577-.039l7.483-9.602c.146-.188.112-.462-.076-.609zm-4.892 0l-.57-.444c-.188-.147-.462-.113-.609.076l-6.39 8.198a.38.38 0 0 1-.577.039l-2.614-2.556c-.171-.167-.447-.164-.614.007l-.505.516c-.167.171-.164.447.007.614l3.887 3.8a.38.38 0 0 0 .577-.039l7.483-9.602c.147-.188.113-.462-.075-.609z"/></svg>