<svg xmlns="http://www.w3.org/2000/svg" height="24" width="24" preserveAspectRatio="xMidYMid meet" fill="none" xmlns:v="https://vecta.io/nano"><path d="M11.75 14.5a2.5 2.5 0 1 0 0-5 2.5 2.5 0 1 0 0 5z" stroke="#0aa0ea" stroke-width="2"/><mask id="A" maskUnits="userSpaceOnUse" x="2" y="2" width="20" height="20" fill="none"><path fill-rule="evenodd" d="M9.87 22h3.75c.25 0 .467-.083.65-.25s.292-.375.325-.625l.3-2.325c.2-.083.4-.183.6-.3l.575-.375 2.125.9a1.1 1.1 0 0 0 .713.013.98.98 0 0 0 .563-.437l1.85-3.2a.94.94 0 0 0 .125-.7.96.96 0 0 0-.375-.6l-1.875-1.425c.033-.117.05-.229.05-.338v-.675c0-.108-.008-.221-.025-.338L21.095 9.9a.96.96 0 0 0 .375-.6.94.94 0 0 0-.125-.7l-1.85-3.225a.93.93 0 0 0-.55-.425 1.12 1.12 0 0 0-.7.025l-2.175.9-.562-.375a3.79 3.79 0 0 0-.612-.3l-.3-2.325c-.033-.25-.142-.458-.325-.625s-.4-.25-.65-.25H9.87c-.25 0-.467.083-.65.25s-.292.375-.325.625l-.3 2.325c-.2.083-.4.183-.6.3l-.575.375-2.175-.9a1.22 1.22 0 0 0-.712-.037c-.242.058-.421.204-.538.438L2.145 8.6a.94.94 0 0 0-.125.7.96.96 0 0 0 .375.6l1.875 1.425c-.017.117-.025.229-.025.338v.675c0 .108.008.221.025.338L2.395 14.1a.96.96 0 0 0-.375.6.94.94 0 0 0 .125.7l1.85 3.225a.93.93 0 0 0 .55.425 1.12 1.12 0 0 0 .7-.025l2.175-.9.563.375a3.79 3.79 0 0 0 .612.3l.3 2.325c.033.25.142.458.325.625s.4.25.65.25z" fill="#fff"/></mask><g mask="url(#A)"><path d="M14.595 21.125l1.983.264.001-.008-1.984-.256zm.3-2.325l-.769-1.846-1.067.444-.148 1.146 1.984.256zm1.175-.675l.78-1.842-1.042-.441-.915.665 1.176 1.617zm2.125.9l-.78 1.842.053.023.054.019.673-1.884zm1.275-.425l1.703 1.048.014-.023.014-.024L19.47 18.6zm1.85-3.2l-1.703-1.048-.014.023-.014.024L21.32 15.4zm-.25-1.3l-1.21 1.592.01.008 1.2-1.6zm-1.875-1.425l-1.923-.549-.376 1.314 1.088.827 1.21-1.592zm.025-1.35l-1.21-1.592-.936.711.166 1.164 1.98-.283zM21.095 9.9l-1.2-1.6-.01.008 1.21 1.592zm.25-1.3l-1.735.995.015.027.016.026L21.345 8.6zm-1.85-3.225l1.735-.995-.015-.027-.016-.026-1.703 1.048zm-1.25-.4l-.673-1.883-.047.017-.046.019.765 1.848zm-2.175.9l-1.176 1.617.906.659 1.035-.428-.765-1.848zM14.895 5.2l-1.984.256.153 1.183 1.113.428.718-1.867zm-.3-2.325l1.984-.256-.001-.008-1.982.264zm-5.7 0l-1.982-.264-.001.008 1.984.256zm-.3 2.325l.769 1.846 1.066-.444.148-1.146L8.595 5.2zm-1.175.675l-.765 1.848 1.035.428.906-.659L7.42 5.875zm-2.175-.9l.765-1.848-.046-.019-.046-.017-.673 1.883zm-1.25.4l1.735.995.028-.05.026-.051-1.789-.894zM2.145 8.6l1.703 1.048.016-.026.015-.027L2.145 8.6zm.25 1.3l1.21-1.592-.01-.008-1.2 1.6zm1.875 1.425l1.98.283.166-1.164-.936-.711-1.21 1.592zm0 1.35l1.21 1.592.936-.711-.166-1.164-1.98.283zM2.395 14.1l1.2 1.6.01-.008-1.21-1.592zm-.25 1.3l1.735-.995-.015-.027-.016-.026L2.145 15.4zm1.85 3.225l-1.735.995.015.027.016.026 1.703-1.048zm1.25.4l.673 1.884.046-.017.046-.019-.765-1.848zm2.175-.9l1.176-1.617-.906-.659-1.035.428.765 1.848zm1.175.675l1.984-.256-.153-1.183-1.113-.428-.718 1.867zm.3 2.325l-1.984.256.001.008 1.982-.264zM13.62 20H9.87v4h3.75v-4zm-.695.27a1.05 1.05 0 0 1 .327-.199c.138-.053.267-.071.368-.071v4c.743 0 1.44-.265 1.995-.77l-2.691-2.96zm-.312.591c.012-.088.041-.198.102-.315s.137-.209.21-.276l2.691 2.96c.539-.49.868-1.132.962-1.841l-3.965-.529zm.299-2.317l-.3 2.325 3.967.512.3-2.325-3.967-.512zm1.576-1.772a3.02 3.02 0 0 1-.361.181l1.538 3.692c.287-.12.567-.26.838-.419l-2.015-3.455zm.406-.265a4.81 4.81 0 0 1-.406.265l2.015 3.455.744-.485-2.353-3.235zm4.081.676l-2.125-.9-1.56 3.683 2.125.9 1.56-3.683zm-.66-.056a.86.86 0 0 1 .268-.037.9.9 0 0 1 .284.051l-1.345 3.767c.65.232 1.332.239 1.978.039l-1.186-3.82zm-.548.424a.99.99 0 0 1 .235-.259 1 1 0 0 1 .313-.166l1.186 3.82a2.98 2.98 0 0 0 1.673-1.299l-3.407-2.096zm1.822-3.153l-1.85 3.2 3.463 2.002 1.85-3.2-3.463-2.002zm-.105.693c-.02-.102-.028-.234-.002-.381a1.04 1.04 0 0 1 .134-.359l3.407 2.096a2.94 2.94 0 0 0 .383-2.14l-3.922.784zm.386.608a1.03 1.03 0 0 1-.252-.277 1 1 0 0 1-.134-.33l3.922-.784A2.96 2.96 0 0 0 22.27 12.5l-2.4 3.2zm-1.885-1.433l1.875 1.425 2.42-3.185-1.875-1.425-2.42 3.185zm-.74-1.93a.78.78 0 0 1 .027-.212l3.846 1.099c.078-.274.127-.572.127-.887h-4zm0-.675v.675h4v-.675h-4zm-.005-.055c.005.031.005.049.005.055h4c0-.211-.016-.418-.045-.62l-3.96.566zm2.645-3.3L18.01 9.733l2.42 3.185 1.875-1.425-2.42-3.185zm-.376.6a1 1 0 0 1 .134-.33 1.03 1.03 0 0 1 .252-.278l2.4 3.2a2.96 2.96 0 0 0 1.136-1.808l-3.922-.784zm.133.74a1.04 1.04 0 0 1-.134-.359c-.026-.148-.019-.28.002-.381l3.922.784a2.94 2.94 0 0 0-.383-2.14l-3.407 2.096zM17.761 6.37l1.85 3.225 3.47-1.99-1.85-3.225-3.47 1.99zm.635.503c-.116-.033-.242-.093-.361-.184a1.01 1.01 0 0 1-.243-.266l3.407-2.096c-.381-.62-.965-1.089-1.704-1.3l-1.099 3.846zm.522-.015c-.065.023-.151.043-.251.046a.88.88 0 0 1-.271-.032l1.099-3.846a3.12 3.12 0 0 0-1.922.065l1.345 3.767zm-2.083.865l2.175-.9-1.529-3.696-2.175.9 1.529 3.696zm-2.367-.515l.426.284 2.353-3.235-.699-.466-2.08 3.417zm-.29-.142c.109.042.205.089.29.142l2.08-3.417c-.297-.181-.61-.333-.934-.458l-1.436 3.733zm-1.566-3.936l.3 2.325 3.967-.512-.3-2.325-3.967.512zm.313.599c-.073-.067-.15-.159-.21-.276s-.09-.227-.102-.315l3.965-.529c-.095-.708-.423-1.35-.962-1.841l-2.691 2.96zm.695.27c-.101 0-.23-.018-.368-.071a1.05 1.05 0 0 1-.327-.199L15.616.77C15.061.265 14.363 0 13.62 0v4zM9.87 4h3.75V0H9.87v4zm.695-.27a1.05 1.05 0 0 1-.327.199c-.138.053-.267.071-.368.071V0c-.743 0-1.44.265-1.995.77l2.691 2.96zm.312-.591c-.012.088-.041.198-.102.315s-.137.209-.21.276L7.875.77c-.539.49-.868 1.132-.962 1.841l3.965.529zm-.299 2.317l.3-2.325-3.967-.512-.3 2.325 3.967.512zM9.003 7.228a3.04 3.04 0 0 1 .361-.181L7.826 3.354c-.287.12-.567.26-.839.419l2.015 3.455zm-.406.265c.128-.093.263-.181.406-.265L6.988 3.772l-.744.485 2.353 3.235zm-4.116-.669l2.175.9 1.529-3.696-2.175-.9-1.529 3.696zm.521.059c-.059.014-.132.023-.215.019a.76.76 0 0 1-.214-.042l1.345-3.767a3.22 3.22 0 0 0-1.854-.098l.939 3.888zm.782-.612c-.052.104-.147.244-.304.372a1.22 1.22 0 0 1-.478.24l-.939-3.888c-.846.204-1.492.756-1.857 1.487l3.578 1.789zM3.88 9.595L5.73 6.37l-3.47-1.99-1.85 3.225 3.47 1.99zm.101-.687c.02.102.028.234.001.381a1.04 1.04 0 0 1-.134.359L.442 7.552a2.94 2.94 0 0 0-.383 2.14l3.922-.784zM3.595 8.3a1.03 1.03 0 0 1 .252.277 1 1 0 0 1 .134.33l-3.922.784A2.96 2.96 0 0 0 1.195 11.5l2.4-3.2zm1.885 1.433L3.606 8.308l-2.42 3.185 1.875 1.425 2.42-3.185zm.765 1.93c0-.006 0-.024.005-.055l-3.96-.566c-.029.202-.045.41-.045.62h4zm0 .675v-.675h-4v.675h4zm.005.055c-.004-.031-.005-.049-.005-.055h-4c0 .211.016.418.045.62l3.96-.566zm-2.645 3.3l1.875-1.425-2.42-3.185-1.875 1.425 2.42 3.185zm.376-.6a1 1 0 0 1-.134.33 1.03 1.03 0 0 1-.252.277l-2.4-3.2a2.96 2.96 0 0 0-1.136 1.808l3.922.784zm-.133-.74a1.04 1.04 0 0 1 .134.359c.026.148.019.28-.001.381l-3.922-.784a2.94 2.94 0 0 0 .383 2.14l3.407-2.096zM5.73 17.63l-1.85-3.225-3.47 1.99 1.85 3.225 3.47-1.99zm-.635-.503a1.08 1.08 0 0 1 .361.184 1.01 1.01 0 0 1 .243.266l-3.407 2.096c.381.62.965 1.089 1.704 1.3l1.099-3.846zm-.522.015c.065-.023.151-.043.251-.047s.194.01.271.032l-1.099 3.846a3.12 3.12 0 0 0 1.922-.064l-1.345-3.767zm2.083-.864l-2.175.9 1.529 3.696 2.175-.9-1.529-3.696zm2.367.515l-.426-.284-2.353 3.235.699.466 2.08-3.417zm.291.142c-.109-.042-.205-.089-.291-.142l-2.08 3.417c.297.181.61.333.934.458l1.436-3.733zm1.566 3.936l-.3-2.325-3.967.512.3 2.325 3.967-.512zm-.313-.599c.073.067.15.159.21.276s.09.227.102.315l-3.965.529c.094.709.423 1.35.962 1.841l2.691-2.96zM9.87 20c.101 0 .23.018.368.071a1.05 1.05 0 0 1 .327.199l-2.691 2.96c.555.505 1.253.77 1.995.77v-4z" fill="#0aa0ea"/></g></svg>