<svg xmlns="http://www.w3.org/2000/svg" height="24" width="24" preserveAspectRatio="xMidYMid meet" fill="#0aa0ea" xmlns:v="https://vecta.io/nano"><path d="M13.563 3.137c.096-.544.617-.912 1.148-.762a10 10 0 0 1 6.981 12.092c-.136.535-.715.802-1.234.613s-.78-.762-.657-1.301a8 8 0 0 0-5.441-9.423c-.528-.163-.894-.676-.798-1.219zm5.331 14.648c.423.355.482.99.086 1.375-.803.783-1.734 1.427-2.755 1.903a10 10 0 0 1-11.207-1.904c-.395-.386-.337-1.021.086-1.376s1.05-.294 1.455.081a8 8 0 0 0 10.88.002c.405-.375 1.032-.436 1.455-.081zM3.543 15.078c-.519.189-1.098-.078-1.234-.613a10 10 0 0 1 6.98-12.09c.532-.15 1.052.218 1.148.762s-.27 1.057-.798 1.219A8 8 0 0 0 4.2 13.778c.123.538-.138 1.112-.657 1.301z"/><path fill-rule="evenodd" d="M12 16a4 4 0 0 0 0-8 4 4 0 0 0 0 8zm0 2a6 6 0 0 0 0-12 6 6 0 0 0 0 12z"/></svg>