<svg xmlns="http://www.w3.org/2000/svg" height="24" width="24" preserveAspectRatio="xMidYMid meet" fill="#d1d7db" fill-rule="evenodd" xmlns:v="https://vecta.io/nano"><path d="M1.36 18.034v4.605h4.633L18.914 9.665l-4.633-4.604L1.36 18.034zm14.798-8.361L5.184 20.691H3.308v-1.852L14.289 7.815l1.87 1.858zm1.417-7.883l-2.187 2.173 4.633 4.605 2.186-2.172c.282-.28.433-.606.433-.942s-.151-.662-.433-.942L19.468 1.79c-.282-.28-.609-.43-.946-.43s-.665.149-.947.43zm2.446 4.031l-1.87-1.858.37-.367 1.869 1.858-.37.367z"/></svg>