<svg xmlns="http://www.w3.org/2000/svg" viewBox="0 0 384 512" xmlns:v="https://vecta.io/nano"><path fill="#ff2374" d="M64 0C28.7 0 0 28.7 0 64v384c0 35.3 28.7 64 64 64h256c35.3 0 64-28.7 64-64V160H256a31.97 31.97 0 0 1-32-32V0H64zm192 0v128h128L256 0zM64 288a31.97 31.97 0 0 1 32-32h96a31.97 31.97 0 0 1 32 32v96a31.97 31.97 0 0 1-32 32H96a31.97 31.97 0 0 1-32-32v-96zm236.9 109.9L256 368v-64l44.9-29.9c2-1.3 4.4-2.1 6.8-2.1 6.8 0 12.3 5.5 12.3 12.3v103.4c0 6.8-5.5 12.3-12.3 12.3-2.4 0-4.8-.7-6.8-2.1z"/></svg>